<svg width="1128" height="200" viewBox="0 0 1128 200" fill="none" xmlns="http://www.w3.org/2000/svg">
<rect x="0.5" y="112.5" width="167" height="87" rx="3.5" stroke="#8E8F99"/>
<path fill-rule="evenodd" clip-rule="evenodd" d="M70 135L77.0078 141.676L64 141.669V174.061H98V161.676L105 168.345V135H70ZM97.6924 160.892L77.8226 141.962H97.6924V160.892ZM91.5231 169.323H69.3801V147.537H70.9453V167.848H91.5231V169.323ZM73.7959 180.061L72.9707 178.364H72.2896L73.4858 180.61V181.919H74.1035V180.61L75.2998 178.364H74.6211L73.7959 180.061ZM76.8379 178.364H76.9844L78.3271 181.919H77.6826L77.395 181.087H76.0189L75.7319 181.919H75.0898L76.4277 178.364H76.5718H76.8379ZM76.1864 180.601H77.2271L76.7062 179.093L76.1864 180.601ZM80.4821 180.012C80.4553 179.978 80.4295 179.944 80.4048 179.912C80.3136 179.792 80.2428 179.675 80.1924 179.563C80.1419 179.449 80.1167 179.332 80.1167 179.212C80.1167 179.026 80.1549 178.866 80.2314 178.733C80.3079 178.6 80.4162 178.497 80.5562 178.425C80.6961 178.352 80.8597 178.316 81.0469 178.316C81.2275 178.316 81.383 178.352 81.5132 178.425C81.645 178.497 81.7459 178.592 81.8159 178.711C81.8875 178.83 81.9233 178.96 81.9233 179.102C81.9233 179.214 81.903 179.316 81.8623 179.409C81.8216 179.502 81.7655 179.587 81.6938 179.663C81.6222 179.74 81.5392 179.812 81.4448 179.88L81.1979 180.06L81.9018 180.891C81.925 180.845 81.946 180.797 81.9648 180.747C82.0251 180.591 82.0552 180.418 82.0552 180.227H82.563C82.563 180.4 82.5459 180.563 82.5117 180.718C82.4792 180.872 82.4263 181.016 82.353 181.148C82.3233 181.202 82.2897 181.254 82.2522 181.304L82.7729 181.919H82.0918L81.8852 181.676C81.7734 181.761 81.6518 181.827 81.5205 181.875C81.348 181.937 81.1641 181.968 80.9688 181.968C80.7327 181.968 80.5285 181.925 80.356 181.838C80.1834 181.752 80.05 181.633 79.9556 181.482C79.8628 181.331 79.8164 181.157 79.8164 180.962C79.8164 180.817 79.8465 180.69 79.9067 180.581C79.967 180.47 80.0492 180.368 80.1533 180.274C80.2495 180.186 80.3591 180.099 80.4821 180.012ZM80.7738 180.369L80.7002 180.422C80.6139 180.492 80.5496 180.56 80.5073 180.625C80.4666 180.689 80.4398 180.747 80.4268 180.801C80.4137 180.855 80.4072 180.902 80.4072 180.942C80.4072 181.047 80.4292 181.141 80.4731 181.226C80.5187 181.31 80.5846 181.378 80.6709 181.428C80.7588 181.477 80.8654 181.502 80.9907 181.502C81.1258 181.502 81.2568 181.471 81.3838 181.411C81.4474 181.38 81.5078 181.343 81.5648 181.299L80.7738 180.369ZM80.9143 179.72L81.1323 179.573C81.2349 179.504 81.3081 179.438 81.3521 179.373C81.396 179.306 81.418 179.223 81.418 179.124C81.418 179.039 81.3854 178.961 81.3203 178.889C81.2552 178.818 81.1632 178.782 81.0444 178.782C80.9614 178.782 80.8914 178.801 80.8345 178.84C80.7775 178.878 80.7344 178.928 80.7051 178.992C80.6774 179.054 80.6636 179.123 80.6636 179.199C80.6636 179.273 80.6823 179.348 80.7197 179.426C80.7572 179.503 80.8084 179.583 80.8735 179.668C80.8868 179.685 80.9004 179.702 80.9143 179.72ZM87.1333 180.762H86.5229C86.505 180.916 86.4676 181.047 86.4106 181.155C86.3553 181.261 86.2731 181.341 86.1641 181.397C86.0566 181.452 85.9159 181.48 85.7417 181.48C85.5985 181.48 85.4756 181.451 85.373 181.394C85.2705 181.337 85.1859 181.257 85.1191 181.152C85.054 181.048 85.0052 180.924 84.9727 180.779C84.9417 180.632 84.9263 180.47 84.9263 180.291V179.99C84.9263 179.802 84.9434 179.634 84.9775 179.487C85.0133 179.339 85.0662 179.215 85.1362 179.114C85.2062 179.013 85.2933 178.936 85.3975 178.884C85.5016 178.832 85.6237 178.806 85.7637 178.806C85.9346 178.806 86.0729 178.836 86.1787 178.894C86.2845 178.951 86.3643 179.034 86.418 179.143C86.4733 179.252 86.5091 179.383 86.5254 179.536H87.1357C87.1113 179.299 87.0446 179.088 86.9355 178.904C86.8281 178.72 86.6768 178.576 86.4814 178.472C86.2861 178.368 86.0469 178.316 85.7637 178.316C85.5407 178.316 85.3397 178.355 85.1606 178.433C84.9832 178.511 84.8311 178.624 84.7041 178.772C84.5771 178.919 84.4795 179.095 84.4111 179.302C84.3444 179.509 84.311 179.74 84.311 179.995V180.291C84.311 180.546 84.3436 180.777 84.4087 180.984C84.4754 181.191 84.5715 181.367 84.6968 181.514C84.8221 181.659 84.9727 181.771 85.1484 181.851C85.3242 181.929 85.522 181.968 85.7417 181.968C86.0282 181.968 86.2715 181.916 86.4717 181.812C86.6719 181.707 86.8273 181.565 86.938 181.384C87.0487 181.202 87.1138 180.995 87.1333 180.762ZM90.5244 180.239V180.044C90.5244 179.775 90.4886 179.535 90.417 179.324C90.347 179.111 90.2469 178.929 90.1167 178.779C89.9865 178.628 89.8311 178.513 89.6504 178.435C89.4697 178.355 89.2695 178.316 89.0498 178.316C88.8317 178.316 88.6323 178.355 88.4517 178.435C88.2726 178.513 88.1172 178.628 87.9854 178.779C87.8551 178.929 87.7542 179.111 87.6826 179.324C87.611 179.535 87.5752 179.775 87.5752 180.044V180.239C87.5752 180.508 87.611 180.749 87.6826 180.962C87.7559 181.175 87.8584 181.357 87.9902 181.506C88.1221 181.656 88.2775 181.771 88.4565 181.851C88.6372 181.929 88.8366 181.968 89.0547 181.968C89.2744 181.968 89.4746 181.929 89.6553 181.851C89.8359 181.771 89.9906 181.656 90.1191 181.506C90.2493 181.357 90.3494 181.175 90.4194 180.962C90.4894 180.749 90.5244 180.508 90.5244 180.239ZM89.9116 180.039V180.239C89.9116 180.438 89.8921 180.614 89.853 180.767C89.8156 180.92 89.7603 181.049 89.687 181.155C89.6138 181.259 89.5243 181.338 89.4185 181.392C89.3127 181.444 89.1914 181.47 89.0547 181.47C88.9196 181.47 88.7992 181.444 88.6934 181.392C88.5876 181.338 88.4964 181.259 88.4199 181.155C88.3451 181.049 88.2881 180.92 88.249 180.767C88.21 180.614 88.1904 180.438 88.1904 180.239V180.039C88.1904 179.841 88.21 179.666 88.249 179.514C88.2881 179.361 88.3442 179.233 88.4175 179.131C88.4923 179.027 88.5827 178.949 88.6885 178.897C88.7943 178.843 88.9147 178.816 89.0498 178.816C89.1849 178.816 89.3062 178.843 89.4136 178.897C89.521 178.949 89.6113 179.027 89.6846 179.131C89.7594 179.233 89.8156 179.361 89.853 179.514C89.8921 179.666 89.9116 179.841 89.9116 180.039Z" fill="#8E8F99"/>
<rect x="192.5" y="112.5" width="167" height="87" rx="3.5" stroke="#8E8F99"/>
<path fill-rule="evenodd" clip-rule="evenodd" d="M274.114 133.935H273.977C273.767 133.922 273.557 133.917 273.347 133.912H273.347H273.327H272.892C272.495 133.912 272.09 133.922 271.688 133.942C271.657 133.94 271.627 133.94 271.597 133.942C267.952 134.149 264.382 135.06 261.08 136.625L260.648 136.833V158.975L261.66 158.631C262.548 158.326 263.494 158.051 264.473 157.797C267.119 157.118 269.837 156.757 272.568 156.722V159.631C272.206 159.633 271.855 159.643 271.503 159.661H271.419C269.318 159.776 267.232 160.097 265.191 160.617C262.607 161.264 260.114 162.236 257.772 163.509V135.112C260.205 133.693 262.825 132.627 265.556 131.946C267.953 131.327 270.417 131.009 272.892 131H273.319C273.83 131.013 274.329 131.036 274.797 131.071C276.03 131.158 277.253 131.353 278.452 131.654V134.517C277.287 134.246 276.103 134.067 274.91 133.983C274.886 133.981 274.862 133.979 274.838 133.977C274.591 133.956 274.344 133.935 274.114 133.935ZM279.153 136.861C279.788 136.91 280.445 136.933 281.111 136.933C283.713 136.923 286.303 136.591 288.824 135.943C291.407 135.294 293.899 134.322 296.241 133.05V160.94C293.807 162.358 291.185 163.424 288.455 164.106C286.057 164.723 283.593 165.04 281.118 165.05C279.243 165.065 277.374 164.844 275.553 164.393V136.322C275.983 136.421 276.426 136.513 276.876 136.589C277.615 136.714 278.394 136.805 279.153 136.861ZM293.347 137.078L292.335 137.418C291.404 137.731 290.466 138.011 289.522 138.26C286.775 138.966 283.951 139.328 281.116 139.338C280.456 139.338 279.848 139.32 279.262 139.282L278.455 139.229V159.318V162.006L279.148 162.067C279.79 162.123 280.453 162.151 281.121 162.151C283.354 162.141 285.578 161.853 287.741 161.294C289.522 160.847 291.255 160.224 292.914 159.435L293.347 159.226V137.078Z" fill="#8E8F99"/>
<path d="M259.737 173.212C259.592 173.062 259.416 172.943 259.222 172.865C259.028 172.786 258.82 172.75 258.611 172.757C258.389 172.754 258.168 172.796 257.961 172.879C257.772 172.955 257.6 173.068 257.455 173.212C257.312 173.357 257.201 173.53 257.129 173.721C257.05 173.921 257.01 174.134 257.013 174.349V178.143C257.004 178.41 257.055 178.676 257.162 178.921C257.251 179.116 257.381 179.289 257.541 179.43C257.693 179.557 257.871 179.65 258.062 179.699C258.247 179.751 258.438 179.778 258.629 179.778C258.84 179.78 259.05 179.735 259.241 179.646C259.431 179.563 259.603 179.444 259.747 179.295C259.888 179.148 260.001 178.975 260.079 178.786C260.16 178.595 260.201 178.389 260.2 178.181V177.757H259.208V178.095C259.211 178.21 259.192 178.325 259.15 178.433C259.118 178.514 259.069 178.587 259.006 178.647C258.945 178.696 258.874 178.733 258.799 178.756C258.732 178.778 258.662 178.79 258.591 178.792C258.503 178.802 258.413 178.788 258.331 178.753C258.249 178.717 258.179 178.66 258.126 178.588C258.032 178.436 257.986 178.258 257.994 178.08V174.542C257.988 174.346 258.03 174.151 258.116 173.975C258.167 173.895 258.24 173.831 258.326 173.791C258.412 173.75 258.507 173.735 258.601 173.746C258.687 173.743 258.772 173.761 258.849 173.798C258.926 173.836 258.993 173.891 259.044 173.96C259.155 174.106 259.213 174.285 259.208 174.469V174.797H260.19V174.41C260.192 174.183 260.151 173.958 260.069 173.746C259.995 173.548 259.883 173.366 259.737 173.212Z" fill="#8E8F99"/>
<path d="M265.629 173.169C265.313 172.902 264.914 172.755 264.501 172.752C264.299 172.753 264.098 172.789 263.909 172.859C263.716 172.928 263.538 173.033 263.385 173.169C263.221 173.317 263.09 173.498 263.001 173.701C262.901 173.932 262.851 174.183 262.856 174.435V178.074C262.85 178.33 262.899 178.585 263.001 178.819C263.09 179.015 263.222 179.189 263.385 179.328C263.537 179.469 263.715 179.578 263.909 179.648C264.098 179.718 264.299 179.754 264.501 179.755C264.703 179.755 264.903 179.719 265.093 179.648C265.29 179.577 265.472 179.468 265.629 179.328C265.787 179.186 265.915 179.013 266.003 178.819C266.105 178.585 266.154 178.33 266.148 178.074V174.435C266.152 174.183 266.103 173.932 266.003 173.701C265.915 173.5 265.788 173.319 265.629 173.169ZM265.166 178.074C265.174 178.171 265.161 178.269 265.127 178.36C265.093 178.451 265.039 178.533 264.969 178.601C264.838 178.711 264.673 178.771 264.502 178.771C264.331 178.771 264.166 178.711 264.035 178.601C263.965 178.533 263.911 178.451 263.877 178.36C263.843 178.269 263.83 178.171 263.838 178.074V174.435C263.83 174.338 263.843 174.241 263.877 174.15C263.911 174.059 263.965 173.976 264.035 173.909C264.166 173.799 264.331 173.739 264.502 173.739C264.673 173.739 264.838 173.799 264.969 173.909C265.039 173.976 265.093 174.059 265.127 174.15C265.161 174.241 265.174 174.338 265.166 174.435V178.074Z" fill="#8E8F99"/>
<path d="M273.367 179.699V172.811H272.414L271.161 176.457H271.144L269.881 172.811H268.938V179.699H269.922V175.509H269.94L270.903 178.471H271.394L272.366 175.509H272.383V179.699H273.367Z" fill="#8E8F99"/>
<path d="M278.958 173.294C278.807 173.124 278.615 172.994 278.402 172.917C278.171 172.842 277.93 172.806 277.688 172.811H276.226V179.699H277.207V177.009H277.713C278.02 177.023 278.324 176.958 278.599 176.821C278.822 176.697 279.008 176.515 279.138 176.294C279.251 176.111 279.328 175.907 279.363 175.694C279.401 175.435 279.419 175.173 279.416 174.911C279.425 174.58 279.393 174.249 279.32 173.927C279.254 173.688 279.13 173.471 278.958 173.294ZM278.452 175.394C278.448 175.519 278.417 175.641 278.361 175.753C278.305 175.859 278.216 175.943 278.108 175.994C277.963 176.059 277.804 176.089 277.645 176.081H277.197V173.739H277.703C277.856 173.731 278.008 173.761 278.146 173.825C278.248 173.883 278.328 173.972 278.376 174.079C278.43 174.2 278.459 174.331 278.462 174.463C278.462 174.608 278.462 174.761 278.462 174.921C278.462 175.081 278.472 175.247 278.462 175.394H278.452Z" fill="#8E8F99"/>
<path d="M283.608 172.811H282.803L281.285 179.699H282.267L282.555 178.219H283.894L284.182 179.699H285.163L283.608 172.811ZM282.702 177.281L283.185 174.784H283.203L283.684 177.281H282.702Z" fill="#8E8F99"/>
<path d="M289.95 176.961H289.932L288.45 172.811H287.506V179.699H288.488V175.557H288.508L290.008 179.699H290.931V172.811H289.95V176.961Z" fill="#8E8F99"/>
<path d="M295.948 172.811L295.158 175.549H295.138L294.349 172.811H293.309L294.657 176.788V179.699H295.639V176.788L296.987 172.811H295.948Z" fill="#8E8F99"/>
<path d="M257 181.645H257.473V182.972H257.794V181.645H258.265V181.372H257V181.645Z" fill="#8E8F99"/>
<path d="M260.977 181.372L260.357 182.972H260.698L260.83 182.608H261.467L261.604 182.972H261.953L261.318 181.372H260.977ZM260.926 182.339L261.144 181.746L261.361 182.339H260.926Z" fill="#8E8F99"/>
<path d="M264.908 182.382H265.277V182.588C265.169 182.675 265.036 182.722 264.898 182.723C264.833 182.726 264.769 182.715 264.71 182.688C264.651 182.661 264.599 182.621 264.559 182.57C264.474 182.449 264.432 182.302 264.44 182.153C264.44 181.797 264.594 181.619 264.9 181.619C264.981 181.611 265.062 181.632 265.128 181.679C265.194 181.726 265.242 181.795 265.262 181.874L265.578 181.813C265.51 181.5 265.285 181.342 264.9 181.342C264.695 181.337 264.495 181.41 264.341 181.548C264.261 181.628 264.198 181.724 264.159 181.83C264.119 181.936 264.103 182.05 264.111 182.163C264.102 182.382 264.175 182.597 264.316 182.764C264.394 182.844 264.489 182.907 264.594 182.947C264.699 182.988 264.811 183.005 264.923 182.998C265.173 183.004 265.417 182.913 265.601 182.743V182.113H264.908V182.382Z" fill="#8E8F99"/>
<path d="M268.923 181.372H268.599V182.972H269.719V182.7H268.923V181.372Z" fill="#8E8F99"/>
<path d="M272.317 181.372H271.994V182.972H272.317V181.372Z" fill="#8E8F99"/>
<path d="M275.636 182.44L274.981 181.372H274.668V182.972H274.969V181.927L275.611 182.972H275.932V181.372H275.636V182.44Z" fill="#8E8F99"/>
<path d="M278.637 182.268H279.434V181.995H278.637V181.645H279.494V181.372H278.313V182.972H279.527V182.7H278.637V182.268Z" fill="#8E8F99"/>
<path d="M285.912 182.003H285.282V181.372H284.961V182.972H285.282V182.273H285.912V182.972H286.234V181.372H285.912V182.003Z" fill="#8E8F99"/>
<path d="M288.93 182.268H289.73V181.995H288.93V181.645H289.79V181.372H288.609V182.972H289.821V182.7H288.93V182.268Z" fill="#8E8F99"/>
<path d="M293.023 182.268C293.302 182.224 293.443 182.077 293.443 181.823C293.451 181.755 293.441 181.686 293.413 181.623C293.386 181.56 293.342 181.506 293.286 181.467C293.141 181.394 292.98 181.361 292.818 181.373H292.14V182.972H292.462V182.303H292.525C292.593 182.299 292.662 182.311 292.725 182.339C292.772 182.368 292.811 182.408 292.839 182.456L293.188 182.964H293.572L293.377 182.652C293.291 182.497 293.17 182.366 293.023 182.268ZM292.699 182.046H292.462V181.645H292.715C292.825 181.636 292.936 181.649 293.041 181.683C293.064 181.703 293.083 181.729 293.095 181.758C293.107 181.787 293.113 181.818 293.111 181.849C293.11 181.88 293.101 181.911 293.087 181.938C293.072 181.966 293.051 181.99 293.026 182.008C292.92 182.041 292.81 182.054 292.699 182.046Z" fill="#8E8F99"/>
<path d="M296.11 182.268H296.906V181.995H296.11V181.645H296.97V181.372H295.786V182.972H297V182.7H296.11V182.268Z" fill="#8E8F99"/>
<rect x="384.5" y="112.5" width="167" height="87" rx="3.5" stroke="#8E8F99"/>
<path d="M452.81 177.223C452.826 177.224 452.842 177.227 452.856 177.232C452.871 177.238 452.884 177.246 452.895 177.256L453.116 177.464C452.945 177.632 452.733 177.766 452.495 177.858C452.217 177.958 451.917 178.006 451.615 177.999C451.331 178.004 451.049 177.959 450.786 177.867C450.55 177.783 450.337 177.656 450.163 177.495C449.985 177.328 449.848 177.132 449.76 176.919C449.663 176.682 449.616 176.432 449.619 176.181C449.615 175.928 449.666 175.677 449.771 175.44C449.867 175.226 450.013 175.03 450.199 174.864C450.387 174.702 450.612 174.574 450.861 174.489C451.133 174.399 451.422 174.355 451.714 174.357C451.985 174.352 452.254 174.393 452.506 174.478C452.725 174.559 452.926 174.671 453.1 174.81L452.915 175.032C452.902 175.048 452.886 175.061 452.868 175.072C452.846 175.085 452.82 175.091 452.793 175.089C452.765 175.087 452.737 175.079 452.713 175.065L452.614 175.006L452.476 174.931C452.416 174.902 452.354 174.878 452.291 174.857C452.209 174.832 452.125 174.813 452.04 174.798C451.931 174.781 451.821 174.773 451.711 174.775C451.501 174.773 451.293 174.806 451.098 174.874C450.917 174.937 450.753 175.031 450.618 175.152C450.48 175.281 450.374 175.432 450.306 175.596C450.228 175.783 450.19 175.982 450.193 176.181C450.19 176.383 450.228 176.584 450.306 176.775C450.374 176.938 450.478 177.088 450.613 177.216C450.739 177.336 450.896 177.43 451.071 177.49C451.251 177.554 451.444 177.586 451.639 177.584C451.752 177.586 451.865 177.579 451.976 177.565C452.158 177.546 452.333 177.492 452.487 177.407C452.564 177.364 452.637 177.315 452.705 177.261C452.733 177.238 452.771 177.224 452.81 177.223Z" fill="#8E8F99"/>
<path d="M459.186 176.18C459.19 176.431 459.139 176.679 459.037 176.914C458.947 177.127 458.805 177.321 458.621 177.483C458.437 177.646 458.215 177.773 457.969 177.857C457.428 178.033 456.831 178.033 456.291 177.857C456.046 177.772 455.825 177.644 455.642 177.482C455.458 177.317 455.315 177.121 455.222 176.907C455.023 176.432 455.023 175.912 455.222 175.437C455.316 175.223 455.459 175.027 455.642 174.859C455.827 174.702 456.048 174.58 456.291 174.499C456.83 174.319 457.429 174.319 457.969 174.499C458.214 174.584 458.436 174.711 458.62 174.874C458.802 175.038 458.944 175.231 459.037 175.442C459.139 175.678 459.19 175.928 459.186 176.18ZM458.606 176.18C458.611 175.98 458.575 175.781 458.502 175.591C458.44 175.428 458.339 175.278 458.206 175.15C458.077 175.028 457.917 174.933 457.74 174.871C457.347 174.742 456.912 174.742 456.52 174.871C456.342 174.933 456.183 175.028 456.053 175.15C455.918 175.277 455.817 175.427 455.755 175.591C455.615 175.975 455.615 176.386 455.755 176.77C455.817 176.933 455.919 177.083 456.053 177.211C456.183 177.331 456.342 177.426 456.52 177.487C456.913 177.613 457.346 177.613 457.74 177.487C457.917 177.426 458.077 177.331 458.206 177.211C458.339 177.083 458.439 176.933 458.502 176.77C458.576 176.58 458.611 176.381 458.606 176.18Z" fill="#8E8F99"/>
<path d="M463.536 176.799L463.594 176.931C463.617 176.884 463.636 176.841 463.658 176.799C463.679 176.754 463.703 176.711 463.73 176.669L465.14 174.478C465.168 174.44 465.193 174.417 465.22 174.41C465.258 174.4 465.297 174.396 465.336 174.398H465.753V177.961H465.259V175.341C465.259 175.308 465.259 175.271 465.259 175.23C465.256 175.19 465.256 175.149 465.259 175.108L463.84 177.329C463.822 177.363 463.793 177.391 463.757 177.41C463.721 177.43 463.679 177.44 463.636 177.44H463.556C463.513 177.441 463.471 177.43 463.434 177.411C463.398 177.391 463.369 177.363 463.352 177.329L461.891 175.094C461.891 175.136 461.891 175.179 461.891 175.221C461.891 175.263 461.891 175.301 461.891 175.334V177.954H461.414V174.398H461.831C461.87 174.396 461.909 174.4 461.947 174.41C461.981 174.424 462.008 174.448 462.024 174.478L463.465 176.671C463.493 176.712 463.517 176.755 463.536 176.799Z" fill="#8E8F99"/>
<path d="M468.845 176.622V177.956H468.293V174.398H469.524C469.756 174.394 469.988 174.42 470.211 174.476C470.39 174.519 470.555 174.595 470.697 174.697C470.819 174.794 470.914 174.913 470.973 175.046C471.038 175.192 471.07 175.346 471.067 175.501C471.069 175.658 471.034 175.812 470.965 175.957C470.898 176.093 470.796 176.215 470.667 176.313C470.525 176.42 470.358 176.5 470.178 176.549C469.963 176.607 469.738 176.635 469.513 176.631L468.845 176.622ZM468.845 176.24H469.513C469.658 176.241 469.802 176.223 469.941 176.185C470.055 176.153 470.16 176.1 470.25 176.032C470.333 175.967 470.397 175.886 470.437 175.796C470.483 175.701 470.505 175.599 470.504 175.497C470.51 175.398 470.491 175.299 470.448 175.207C470.405 175.115 470.339 175.032 470.255 174.964C470.044 174.823 469.779 174.755 469.513 174.773H468.845V176.24Z" fill="#8E8F99"/>
<path d="M476.264 177.961H475.828C475.785 177.963 475.742 177.951 475.707 177.928C475.676 177.906 475.651 177.878 475.635 177.846L475.26 176.985H473.374L472.985 177.846C472.971 177.877 472.947 177.905 472.916 177.926C472.881 177.95 472.837 177.963 472.792 177.961H472.356L474.012 174.397H474.586L476.264 177.961ZM473.532 176.638H475.089L474.432 175.188C474.381 175.078 474.34 174.967 474.307 174.853L474.244 175.039C474.225 175.096 474.203 175.147 474.183 175.19L473.532 176.638Z" fill="#8E8F99"/>
<path d="M478.65 174.414C478.683 174.43 478.711 174.451 478.732 174.478L481.148 177.164C481.148 177.122 481.148 177.079 481.148 177.039C481.148 176.999 481.148 176.959 481.148 176.921V174.398H481.642V177.961H481.366C481.327 177.962 481.288 177.955 481.253 177.94C481.218 177.923 481.188 177.901 481.164 177.874L478.752 175.19C478.754 175.231 478.754 175.272 478.752 175.313C478.752 175.353 478.752 175.388 478.752 175.421V177.961H478.258V174.398H478.55C478.584 174.397 478.618 174.402 478.65 174.414Z" fill="#8E8F99"/>
<path d="M485.71 176.544V177.959H485.158V176.544L483.632 174.398H484.126C484.169 174.395 484.211 174.406 484.245 174.428C484.275 174.451 484.3 174.478 484.319 174.508L485.274 175.893C485.313 175.952 485.346 176.006 485.374 176.058C485.401 176.11 485.423 176.159 485.443 176.209L485.514 176.056C485.541 176 485.573 175.945 485.608 175.893L486.55 174.499C486.569 174.471 486.593 174.446 486.621 174.423C486.654 174.399 486.697 174.386 486.74 174.388H487.24L485.71 176.544Z" fill="#8E8F99"/>
<path d="M463.263 168.417C463.503 168.443 463.746 168.464 463.992 168.483C467.716 167.059 470.867 164.73 473.051 161.784C475.234 158.839 476.353 155.41 476.267 151.924L472.163 148.417C472.997 152.128 472.607 155.964 471.035 159.496C469.463 163.028 466.772 166.117 463.263 168.417Z" fill="#8E8F99"/>
<path d="M461.797 168.254L461.908 168.273C465.658 165.981 468.517 162.781 470.115 159.086C471.713 155.391 471.978 151.372 470.873 147.547L465.027 142.552C467.392 146.658 468.344 151.253 467.772 155.803C467.2 160.353 465.128 164.67 461.797 168.254Z" fill="#8E8F99"/>
<path d="M481.625 156.042C480.632 159.872 478.219 163.326 474.746 165.891C473.732 166.644 472.638 167.316 471.478 167.896C474.306 167.186 476.906 165.93 479.076 164.226C481.246 162.521 482.93 160.414 483.996 158.066L481.625 156.042Z" fill="#8E8F99"/>
<path d="M480.695 155.478L477.319 152.594C477.254 155.883 476.16 159.096 474.15 161.901C472.14 164.706 469.287 167 465.888 168.544H465.905C466.662 168.544 467.419 168.505 468.171 168.429C471.347 167.321 474.154 165.559 476.339 163.299C478.524 161.039 480.021 158.352 480.695 155.478Z" fill="#8E8F99"/>
<path d="M462.286 140.446L458.259 137C454.658 138.189 451.562 140.278 449.375 142.996C447.187 145.713 446.011 148.931 446 152.229V152.229C446.013 155.872 447.449 159.409 450.079 162.277C452.71 165.145 456.384 167.182 460.522 168.066C464.216 164.221 466.379 159.469 466.696 154.502C467.013 149.535 465.468 144.611 462.286 140.446Z" fill="#8E8F99"/>
<path d="M490 154.948C489.985 150.624 487.969 146.482 484.391 143.425C480.813 140.368 475.964 138.645 470.904 138.632C468.566 138.63 466.247 138.999 464.067 139.719L488.725 160.787C489.569 158.925 490.001 156.945 490 154.948Z" fill="#8E8F99"/>
<rect x="576.5" y="112.5" width="167" height="87" rx="3.5" stroke="#8E8F99"/>
<path d="M632.078 149.518H632.075C629.69 149.518 627.756 151.262 627.756 153.412V153.415C627.756 155.566 629.69 157.309 632.075 157.309H632.078C634.464 157.309 636.398 155.566 636.398 153.415V153.412C636.398 151.262 634.464 149.518 632.078 149.518Z" fill="#8E8F99"/>
<path d="M663.961 148.273C663.955 145.286 662.636 142.422 660.293 140.309C657.95 138.197 654.775 137.007 651.461 137V137C648.147 137.005 644.97 138.195 642.626 140.308C640.282 142.42 638.962 145.285 638.955 148.273V164.747C638.955 164.747 663.959 162.236 663.961 148.276V148.273Z" fill="#8E8F99"/>
<path d="M619 170.154C619.006 172.233 619.924 174.225 621.554 175.695C623.184 177.165 625.393 177.994 627.699 178C630.004 177.994 632.213 177.166 633.843 175.696C635.473 174.227 636.391 172.235 636.398 170.157V158.694C636.398 158.694 619 160.442 619 170.154ZM627.699 172.208C627.248 172.208 626.808 172.088 626.433 171.862C626.059 171.636 625.767 171.316 625.594 170.94C625.422 170.565 625.377 170.152 625.465 169.754C625.553 169.355 625.77 168.989 626.088 168.702C626.407 168.415 626.813 168.219 627.255 168.14C627.696 168.061 628.154 168.101 628.571 168.257C628.987 168.412 629.343 168.676 629.593 169.013C629.843 169.351 629.977 169.748 629.977 170.154C629.978 170.425 629.92 170.693 629.806 170.943C629.692 171.193 629.524 171.42 629.313 171.612C629.101 171.803 628.85 171.955 628.573 172.059C628.296 172.163 627.999 172.216 627.699 172.216V172.208Z" fill="#8E8F99"/>
<path d="M643.609 168.515V172.781H642.73V168.515H643.609ZM645.308 170.337V171.023H643.369V170.337H645.308ZM645.513 168.515V169.203H643.369V168.515H645.513ZM649.527 170.548V170.75C649.527 171.075 649.483 171.366 649.395 171.623C649.307 171.881 649.183 172.101 649.023 172.283C648.863 172.462 648.671 172.6 648.449 172.696C648.228 172.791 647.983 172.839 647.713 172.839C647.446 172.839 647.201 172.791 646.978 172.696C646.757 172.6 646.566 172.462 646.404 172.283C646.242 172.101 646.116 171.881 646.026 171.623C645.938 171.366 645.894 171.075 645.894 170.75V170.548C645.894 170.222 645.938 169.931 646.026 169.675C646.114 169.417 646.238 169.198 646.398 169.016C646.56 168.834 646.751 168.696 646.972 168.6C647.195 168.504 647.44 168.456 647.708 168.456C647.977 168.456 648.222 168.504 648.443 168.6C648.666 168.696 648.857 168.834 649.017 169.016C649.179 169.198 649.304 169.417 649.392 169.675C649.482 169.931 649.527 170.222 649.527 170.548ZM648.639 170.75V170.542C648.639 170.316 648.619 170.117 648.578 169.945C648.537 169.773 648.476 169.628 648.396 169.511C648.316 169.394 648.218 169.306 648.103 169.247C647.988 169.187 647.856 169.157 647.708 169.157C647.559 169.157 647.427 169.187 647.312 169.247C647.199 169.306 647.102 169.394 647.022 169.511C646.944 169.628 646.884 169.773 646.843 169.945C646.802 170.117 646.782 170.316 646.782 170.542V170.75C646.782 170.975 646.802 171.174 646.843 171.348C646.884 171.52 646.945 171.665 647.025 171.785C647.105 171.902 647.203 171.991 647.318 172.051C647.433 172.112 647.565 172.142 647.713 172.142C647.862 172.142 647.994 172.112 648.109 172.051C648.224 171.991 648.321 171.902 648.399 171.785C648.477 171.665 648.537 171.52 648.578 171.348C648.619 171.174 648.639 170.975 648.639 170.75ZM652.38 171.664C652.38 171.588 652.369 171.52 652.345 171.459C652.324 171.397 652.283 171.34 652.222 171.289C652.162 171.237 652.077 171.185 651.967 171.134C651.858 171.083 651.716 171.031 651.542 170.976C651.349 170.913 651.166 170.843 650.992 170.765C650.82 170.687 650.667 170.596 650.535 170.493C650.404 170.387 650.3 170.265 650.224 170.126C650.15 169.988 650.113 169.827 650.113 169.643C650.113 169.465 650.152 169.304 650.23 169.16C650.308 169.013 650.417 168.888 650.558 168.785C650.699 168.679 650.865 168.598 651.056 168.541C651.25 168.485 651.461 168.456 651.692 168.456C652.006 168.456 652.281 168.513 652.515 168.626C652.75 168.74 652.931 168.895 653.06 169.092C653.191 169.289 653.256 169.515 653.256 169.769H652.383C652.383 169.644 652.357 169.535 652.304 169.441C652.253 169.345 652.175 169.27 652.07 169.215C651.966 169.161 651.835 169.133 651.677 169.133C651.525 169.133 651.398 169.157 651.296 169.203C651.195 169.248 651.119 169.31 651.068 169.388C651.017 169.464 650.992 169.55 650.992 169.646C650.992 169.718 651.009 169.784 651.044 169.842C651.082 169.901 651.136 169.955 651.208 170.006C651.281 170.057 651.37 170.105 651.475 170.15C651.581 170.195 651.703 170.239 651.841 170.282C652.074 170.352 652.278 170.431 652.454 170.519C652.631 170.607 652.78 170.705 652.899 170.815C653.018 170.924 653.108 171.048 653.168 171.187C653.229 171.326 653.259 171.483 653.259 171.659C653.259 171.844 653.223 172.01 653.151 172.157C653.079 172.303 652.974 172.427 652.837 172.529C652.701 172.63 652.538 172.707 652.348 172.76C652.159 172.813 651.947 172.839 651.712 172.839C651.501 172.839 651.293 172.812 651.088 172.757C650.883 172.701 650.697 172.616 650.529 172.502C650.363 172.389 650.23 172.245 650.13 172.069C650.031 171.893 649.981 171.685 649.981 171.445H650.863C650.863 171.578 650.883 171.69 650.924 171.782C650.965 171.873 651.023 171.948 651.097 172.004C651.173 172.061 651.263 172.102 651.367 172.127C651.472 172.153 651.587 172.165 651.712 172.165C651.865 172.165 651.99 172.144 652.087 172.101C652.187 172.058 652.26 171.998 652.307 171.922C652.356 171.846 652.38 171.76 652.38 171.664ZM655.764 168.515V172.781H654.888V168.515H655.764ZM657.077 168.515V169.203H653.596V168.515H657.077ZM660.44 172.095V172.781H658.169V172.095H660.44ZM658.457 168.515V172.781H657.578V168.515H658.457ZM660.144 170.252V170.92H658.169V170.252H660.144ZM660.437 168.515V169.203H658.169V168.515H660.437ZM660.953 168.515H662.543C662.87 168.515 663.15 168.564 663.384 168.661C663.621 168.759 663.802 168.904 663.929 169.095C664.056 169.286 664.12 169.522 664.12 169.801C664.12 170.03 664.081 170.226 664.002 170.39C663.926 170.552 663.818 170.688 663.677 170.797C663.539 170.905 663.375 170.991 663.188 171.055L662.91 171.202H661.527L661.521 170.516H662.549C662.704 170.516 662.832 170.489 662.933 170.434C663.035 170.379 663.111 170.303 663.162 170.205C663.214 170.108 663.241 169.995 663.241 169.866C663.241 169.729 663.215 169.611 663.165 169.511C663.114 169.411 663.037 169.335 662.933 169.283C662.83 169.23 662.7 169.203 662.543 169.203H661.832V172.781H660.953V168.515ZM663.337 172.781L662.365 170.879L663.293 170.873L664.278 172.74V172.781H663.337ZM667.952 171.26H666.865V170.575H667.952C668.12 170.575 668.256 170.547 668.362 170.493C668.467 170.436 668.544 170.358 668.593 170.258C668.642 170.159 668.667 170.046 668.667 169.921C668.667 169.794 668.642 169.676 668.593 169.567C668.544 169.457 668.467 169.37 668.362 169.303C668.256 169.237 668.12 169.203 667.952 169.203H667.169V172.781H666.291V168.515H667.952C668.286 168.515 668.572 168.576 668.81 168.697C669.05 168.816 669.234 168.981 669.361 169.192C669.488 169.403 669.551 169.644 669.551 169.915C669.551 170.191 669.488 170.429 669.361 170.63C669.234 170.831 669.05 170.987 668.81 171.096C668.572 171.205 668.286 171.26 667.952 171.26ZM673.02 172.095V172.781H670.75V172.095H673.02ZM671.037 168.515V172.781H670.158V168.515H671.037ZM672.724 170.252V170.92H670.75V170.252H672.724ZM673.017 168.515V169.203H670.75V168.515H673.017ZM675.499 168.515V172.781H674.623V168.515H675.499ZM676.811 168.515V169.203H673.331V168.515H676.811ZM680.174 172.095V172.781H677.904V172.095H680.174ZM678.191 168.515V172.781H677.312V168.515H678.191ZM679.878 170.252V170.92H677.904V170.252H679.878ZM680.171 168.515V169.203H677.904V168.515H680.171ZM680.687 168.515H682.278C682.604 168.515 682.884 168.564 683.119 168.661C683.355 168.759 683.537 168.904 683.664 169.095C683.791 169.286 683.854 169.522 683.854 169.801C683.854 170.03 683.815 170.226 683.737 170.39C683.661 170.552 683.552 170.688 683.412 170.797C683.273 170.905 683.11 170.991 682.922 171.055L682.644 171.202H681.261L681.255 170.516H682.284C682.438 170.516 682.566 170.489 682.667 170.434C682.769 170.379 682.845 170.303 682.896 170.205C682.949 170.108 682.975 169.995 682.975 169.866C682.975 169.729 682.95 169.611 682.899 169.511C682.848 169.411 682.771 169.335 682.667 169.283C682.564 169.23 682.434 169.203 682.278 169.203H681.566V172.781H680.687V168.515ZM683.072 172.781L682.099 170.879L683.028 170.873L684.012 172.74V172.781H683.072ZM686.751 171.664C686.751 171.588 686.74 171.52 686.716 171.459C686.695 171.397 686.654 171.34 686.593 171.289C686.533 171.237 686.448 171.185 686.338 171.134C686.229 171.083 686.087 171.031 685.914 170.976C685.72 170.913 685.537 170.843 685.363 170.765C685.191 170.687 685.039 170.596 684.906 170.493C684.775 170.387 684.671 170.265 684.595 170.126C684.521 169.988 684.484 169.827 684.484 169.643C684.484 169.465 684.523 169.304 684.601 169.16C684.679 169.013 684.789 168.888 684.929 168.785C685.07 168.679 685.236 168.598 685.427 168.541C685.621 168.485 685.833 168.456 686.063 168.456C686.377 168.456 686.652 168.513 686.886 168.626C687.121 168.74 687.302 168.895 687.431 169.092C687.562 169.289 687.627 169.515 687.627 169.769H686.754C686.754 169.644 686.728 169.535 686.675 169.441C686.625 169.345 686.546 169.27 686.441 169.215C686.337 169.161 686.207 169.133 686.048 169.133C685.896 169.133 685.769 169.157 685.667 169.203C685.566 169.248 685.49 169.31 685.439 169.388C685.388 169.464 685.363 169.55 685.363 169.646C685.363 169.718 685.38 169.784 685.416 169.842C685.453 169.901 685.507 169.955 685.58 170.006C685.652 170.057 685.741 170.105 685.846 170.15C685.952 170.195 686.074 170.239 686.212 170.282C686.445 170.352 686.649 170.431 686.825 170.519C687.002 170.607 687.151 170.705 687.27 170.815C687.389 170.924 687.479 171.048 687.54 171.187C687.6 171.326 687.63 171.483 687.63 171.659C687.63 171.844 687.594 172.01 687.522 172.157C687.45 172.303 687.345 172.427 687.208 172.529C687.072 172.63 686.909 172.707 686.719 172.76C686.53 172.813 686.318 172.839 686.083 172.839C685.873 172.839 685.665 172.812 685.459 172.757C685.254 172.701 685.068 172.616 684.9 172.502C684.734 172.389 684.601 172.245 684.501 172.069C684.402 171.893 684.352 171.685 684.352 171.445H685.234C685.234 171.578 685.254 171.69 685.295 171.782C685.336 171.873 685.394 171.948 685.468 172.004C685.544 172.061 685.634 172.102 685.738 172.127C685.843 172.153 685.958 172.165 686.083 172.165C686.236 172.165 686.361 172.144 686.458 172.101C686.558 172.058 686.631 171.998 686.678 171.922C686.727 171.846 686.751 171.76 686.751 171.664Z" fill="#8E8F99"/>
<rect x="768.5" y="112.5" width="167" height="87" rx="3.5" stroke="#8E8F99"/>
<path d="M826.792 172.373C827.037 172.647 827.168 172.989 827.161 173.341C827.174 173.57 827.129 173.799 827.03 174.011C826.931 174.222 826.78 174.411 826.589 174.563C826.112 174.887 825.521 175.046 824.925 175.009H822V168.877H824.865C825.431 168.843 825.992 168.987 826.452 169.284C826.637 169.424 826.784 169.6 826.88 169.799C826.977 169.998 827.021 170.215 827.008 170.432C827.025 170.77 826.907 171.103 826.675 171.369C826.453 171.613 826.146 171.782 825.804 171.849C826.192 171.913 826.542 172.098 826.792 172.373ZM823.361 171.447H824.586C824.864 171.466 825.14 171.394 825.364 171.244C825.456 171.169 825.528 171.076 825.573 170.972C825.619 170.868 825.637 170.756 825.627 170.644C825.636 170.534 825.617 170.422 825.572 170.319C825.527 170.215 825.457 170.122 825.368 170.045C825.137 169.891 824.852 169.818 824.566 169.839H823.361V171.447ZM825.484 173.799C825.582 173.722 825.66 173.626 825.71 173.518C825.76 173.41 825.782 173.293 825.774 173.176C825.781 173.058 825.758 172.939 825.707 172.83C825.656 172.721 825.577 172.624 825.477 172.547C825.238 172.387 824.943 172.308 824.646 172.325H823.361V174.012H824.662C824.955 174.027 825.245 173.952 825.484 173.799Z" fill="#8E8F99"/>
<path d="M832.649 175.009L831.055 172.613H830.456V175.009H829.085V168.877H831.68C832.335 168.836 832.981 169.022 833.487 169.398C833.85 169.731 834.069 170.17 834.104 170.635C834.14 171.1 833.989 171.561 833.68 171.936C833.36 172.266 832.923 172.486 832.442 172.559L834.139 175.009H832.649ZM830.456 171.777H831.577C832.356 171.777 832.745 171.467 832.745 170.848C832.753 170.722 832.732 170.595 832.683 170.477C832.633 170.358 832.557 170.25 832.459 170.159C832.213 169.975 831.896 169.886 831.577 169.91H830.442L830.456 171.777Z" fill="#8E8F99"/>
<path d="M840.143 173.775H837.411L836.928 175.009H835.49L838 168.946H839.554L842.053 175.009H840.615L840.143 173.775ZM839.777 172.846L838.778 170.258L837.78 172.846H839.777Z" fill="#8E8F99"/>
<path d="M849.523 175.009H848.162L845.111 170.839V175.009H843.753V168.877H845.111L848.162 173.071V168.877H849.523V175.009Z" fill="#8E8F99"/>
<path d="M857.29 173.541C857.009 174.004 856.58 174.381 856.059 174.623C855.467 174.892 854.809 175.025 854.146 175.009H851.723V168.877H854.146C854.808 168.861 855.465 168.991 856.059 169.254C856.58 169.491 857.009 169.864 857.29 170.324C857.57 170.823 857.716 171.374 857.716 171.933C857.716 172.492 857.57 173.043 857.29 173.541ZM855.733 173.395C856.121 172.987 856.335 172.468 856.335 171.931C856.335 171.394 856.121 170.875 855.733 170.468C855.263 170.099 854.651 169.911 854.029 169.946H853.084V173.916H854.029C854.651 173.951 855.263 173.764 855.733 173.395Z" fill="#8E8F99"/>
<path d="M840.995 134.767C840.995 134.767 858.561 140.737 858.189 149.377V163.991C858.189 163.991 840.635 158.017 841.001 149.377L840.995 134.767Z" fill="#8E8F99"/>
<path d="M873.839 160.569C877.157 158.514 880.994 157.241 885 156.867V152.292C880.384 153.894 876.469 156.797 873.839 160.569Z" fill="#8E8F99"/>
<path d="M871.846 161.948C874.561 157.025 879.269 153.227 885 151.334V138.152C885 138.152 859.982 146.657 860.511 158.961V179.767C860.511 179.767 861.626 179.386 863.38 178.673C863.38 178.008 863.38 177.337 863.46 176.663C863.978 170.951 866.994 165.658 871.846 161.948Z" fill="#8E8F99"/>
<path d="M869.466 169.677C869.598 168.234 869.891 166.807 870.342 165.417C867.321 168.621 865.491 172.597 865.11 176.786C865.074 177.181 865.054 177.577 865.044 177.984C866.465 177.37 868.119 176.603 869.856 175.701C869.412 173.72 869.281 171.692 869.466 169.677Z" fill="#8E8F99"/>
<path d="M870.461 169.752C870.295 171.575 870.399 173.409 870.771 175.207C877.606 171.525 885.286 165.836 884.99 158.961V158.362C880.107 158.854 875.538 160.776 871.985 163.832C871.154 165.726 870.64 167.721 870.461 169.752Z" fill="#8E8F99"/>
<rect x="960.5" y="112.5" width="167" height="87" rx="3.5" stroke="#8E8F99"/>
<path d="M1045.53 155.443C1045.09 154.852 1044.87 154.154 1044.92 153.451V150.563C1044.92 149.678 1045.12 149.005 1045.53 148.545C1045.93 148.085 1046.62 147.855 1047.6 147.857C1048.52 147.857 1049.17 148.053 1049.55 148.445C1049.97 148.945 1050.18 149.556 1050.13 150.172V150.851H1048.49V150.164C1048.49 149.939 1048.48 149.714 1048.44 149.491C1048.42 149.339 1048.33 149.198 1048.21 149.091C1048.04 148.977 1047.82 148.921 1047.61 148.936C1047.38 148.921 1047.16 148.98 1046.98 149.1C1046.84 149.218 1046.74 149.372 1046.71 149.541C1046.66 149.777 1046.64 150.016 1046.65 150.255V153.76C1046.62 154.098 1046.69 154.436 1046.86 154.744C1046.94 154.848 1047.05 154.931 1047.19 154.983C1047.32 155.034 1047.47 155.054 1047.61 155.038C1047.82 155.053 1048.03 154.996 1048.19 154.879C1048.33 154.764 1048.41 154.615 1048.44 154.453C1048.48 154.221 1048.49 153.986 1048.49 153.751V153.04H1050.13V153.689C1050.18 154.332 1049.98 154.97 1049.56 155.505C1049.19 155.934 1048.54 156.148 1047.6 156.148C1046.65 156.148 1045.93 155.919 1045.53 155.443Z" fill="#8E8F99"/>
<path d="M1052.38 155.473C1051.96 155.023 1051.75 154.368 1051.75 153.501V150.463C1051.75 149.605 1051.96 148.956 1052.38 148.515C1052.79 148.075 1053.49 147.855 1054.46 147.857C1055.43 147.857 1056.12 148.077 1056.53 148.515C1056.95 148.956 1057.16 149.605 1057.16 150.463V153.501C1057.16 154.359 1056.95 155.017 1056.53 155.47C1056.1 155.922 1055.42 156.148 1054.46 156.148C1053.5 156.148 1052.8 155.919 1052.38 155.473ZM1055.23 154.744C1055.37 154.462 1055.44 154.154 1055.42 153.845V150.125C1055.44 149.822 1055.38 149.52 1055.23 149.244C1055.15 149.138 1055.03 149.054 1054.89 149.002C1054.76 148.95 1054.61 148.932 1054.46 148.95C1054.31 148.933 1054.16 148.951 1054.03 149.002C1053.89 149.054 1053.77 149.138 1053.69 149.244C1053.54 149.519 1053.47 149.822 1053.49 150.125V153.863C1053.47 154.172 1053.54 154.481 1053.69 154.762C1053.78 154.856 1053.9 154.932 1054.03 154.984C1054.17 155.037 1054.31 155.063 1054.46 155.063C1054.6 155.063 1054.75 155.037 1054.88 154.984C1055.01 154.932 1055.13 154.856 1055.23 154.762V154.744Z" fill="#8E8F99"/>
<path d="M1059.14 147.946H1060.91L1062.24 153.551L1063.6 147.946H1065.32L1065.5 156.036H1064.22L1064.09 150.414L1062.77 156.036H1061.75L1060.39 150.393L1060.26 156.036H1058.98L1059.14 147.946Z" fill="#8E8F99"/>
<path d="M1067.48 147.946H1070.24C1071.83 147.946 1072.62 148.712 1072.62 150.243C1072.62 151.71 1071.79 152.443 1070.11 152.441H1069.17V156.036H1067.47L1067.48 147.946ZM1069.84 151.404C1070.01 151.422 1070.18 151.409 1070.34 151.365C1070.5 151.321 1070.65 151.247 1070.78 151.148C1070.97 150.875 1071.06 150.554 1071.02 150.235C1071.03 149.988 1071 149.741 1070.94 149.5C1070.91 149.42 1070.87 149.344 1070.81 149.278C1070.75 149.212 1070.68 149.157 1070.6 149.115C1070.36 149.017 1070.1 148.973 1069.84 148.986H1069.18V151.404H1069.84Z" fill="#8E8F99"/>
<path d="M1075.08 147.946H1076.91L1078.78 156.036H1077.2L1076.83 154.171H1075.19L1074.81 156.036H1073.2L1075.08 147.946ZM1076.64 153.234L1076 149.838L1075.37 153.234H1076.64Z" fill="#8E8F99"/>
<path d="M1080.3 147.946H1081.49L1083.77 152.561V147.946H1085.18V156.036H1084.05L1081.76 151.219V156.036H1080.29L1080.3 147.946Z" fill="#8E8F99"/>
<path d="M1088.49 152.952L1086.6 147.957H1088.19L1089.35 151.165L1090.44 147.957H1092L1090.13 152.952V156.036H1088.49V152.952Z" fill="#8E8F99"/>
<path d="M1048.16 159.574V159.997H1046.77V163.284H1046.19V159.997H1044.79V159.574H1048.16Z" fill="#8E8F99"/>
<path d="M1052.51 163.284H1052.06C1052.02 163.287 1051.97 163.274 1051.94 163.249C1051.9 163.228 1051.88 163.198 1051.86 163.164L1051.46 162.283H1049.53L1049.13 163.164C1049.12 163.201 1049.1 163.235 1049.07 163.264C1049.03 163.288 1048.99 163.301 1048.94 163.299H1048.49L1050.2 159.589H1050.79L1052.51 163.284ZM1049.69 161.907H1051.3L1050.62 160.397C1050.57 160.282 1050.53 160.166 1050.49 160.047C1050.47 160.118 1050.45 160.185 1050.43 160.244L1050.37 160.4L1049.69 161.907Z" fill="#8E8F99"/>
<path d="M1055.45 162.92C1055.55 162.925 1055.66 162.925 1055.77 162.92C1055.86 162.912 1055.95 162.897 1056.04 162.876C1056.12 162.858 1056.2 162.836 1056.28 162.809C1056.36 162.782 1056.43 162.75 1056.51 162.717V161.883H1055.83C1055.82 161.884 1055.8 161.882 1055.78 161.877C1055.77 161.872 1055.75 161.864 1055.74 161.854C1055.73 161.845 1055.72 161.835 1055.71 161.823C1055.71 161.811 1055.71 161.799 1055.71 161.786V161.501H1057.03V162.923C1056.92 162.99 1056.81 163.049 1056.69 163.099C1056.57 163.151 1056.44 163.193 1056.31 163.226C1056.17 163.261 1056.03 163.287 1055.88 163.302C1055.72 163.318 1055.55 163.326 1055.39 163.326C1055.09 163.328 1054.8 163.281 1054.53 163.188C1054.27 163.099 1054.04 162.967 1053.85 162.8C1053.66 162.631 1053.51 162.431 1053.41 162.212C1053.3 161.966 1053.25 161.705 1053.25 161.442C1053.25 161.178 1053.3 160.915 1053.4 160.667C1053.5 160.447 1053.65 160.247 1053.84 160.079C1054.04 159.912 1054.27 159.781 1054.52 159.694C1054.82 159.599 1055.13 159.553 1055.44 159.556C1055.6 159.556 1055.75 159.567 1055.91 159.588C1056.05 159.608 1056.18 159.639 1056.32 159.682C1056.43 159.721 1056.55 159.77 1056.66 159.829C1056.76 159.887 1056.86 159.952 1056.95 160.023L1056.79 160.252C1056.78 160.273 1056.76 160.291 1056.73 160.303C1056.71 160.316 1056.68 160.322 1056.66 160.323C1056.62 160.322 1056.58 160.312 1056.55 160.293C1056.5 160.27 1056.44 160.241 1056.38 160.205C1056.31 160.166 1056.23 160.133 1056.16 160.105C1056.05 160.07 1055.95 160.043 1055.84 160.023C1055.7 160 1055.55 159.99 1055.41 159.991C1055.19 159.989 1054.96 160.024 1054.75 160.094C1054.56 160.159 1054.39 160.259 1054.25 160.387C1054.11 160.521 1054 160.678 1053.94 160.849C1053.78 161.251 1053.78 161.684 1053.94 162.086C1054.01 162.26 1054.13 162.419 1054.28 162.553C1054.42 162.68 1054.59 162.78 1054.77 162.847C1054.99 162.911 1055.22 162.936 1055.45 162.92Z" fill="#8E8F99"/>
<path d="M1060.87 162.861H1062.73V163.284H1060.31V159.574H1060.89L1060.87 162.861Z" fill="#8E8F99"/>
<path d="M1064.67 163.284H1064.08V159.574H1064.67V163.284Z" fill="#8E8F99"/>
<path d="M1066.83 159.591C1066.87 159.608 1066.9 159.631 1066.92 159.659L1069.41 162.456C1069.41 162.412 1069.41 162.368 1069.41 162.324C1069.41 162.283 1069.41 162.241 1069.41 162.203V159.559H1069.92V163.284H1069.62C1069.58 163.288 1069.54 163.28 1069.5 163.264C1069.46 163.245 1069.43 163.221 1069.41 163.193L1066.92 160.399C1066.92 160.443 1066.92 160.484 1066.92 160.526C1066.92 160.567 1066.92 160.605 1066.92 160.64V163.284H1066.43V159.574H1066.74C1066.77 159.574 1066.8 159.58 1066.83 159.591Z" fill="#8E8F99"/>
<path d="M1074.2 159.574V159.982H1072.14V161.207H1073.81V161.601H1072.14V162.867H1074.2V163.275H1071.54V159.574H1074.2Z" fill="#8E8F99"/>
<path d="M1013.2 136.659L1039.05 142.993V165.188L1013.2 158.857V136.659ZM1011.54 134.767V159.935L1040.7 167.083V141.917L1011.54 134.767Z" fill="#8E8F99"/>
<path d="M1027.17 178.767L998 171.613V146.447L1027.17 153.598V178.767Z" fill="#8E8F99"/>
<path d="M1012.02 136.374L1037.54 142.628L1026.68 151.994L1001.17 145.737L1012.02 136.374ZM1011.54 134.767L998 146.447L1027.17 153.598L1040.7 141.917L1011.54 134.767Z" fill="#8E8F99"/>
<path d="M1028.81 177.351L1040.7 167.086L1028.81 164.169V177.351Z" fill="#8E8F99"/>
<path d="M490.446 23.5098H495.702C495.597 25.2324 495.122 26.7617 494.278 28.0977C493.446 29.4336 492.28 30.4766 490.78 31.2266C489.292 31.9766 487.499 32.3516 485.401 32.3516C483.761 32.3516 482.29 32.0703 480.989 31.5078C479.688 30.9336 478.575 30.1133 477.649 29.0469C476.735 27.9805 476.038 26.6914 475.558 25.1797C475.077 23.668 474.837 21.9746 474.837 20.0996V18.3242C474.837 16.4492 475.083 14.7559 475.575 13.2441C476.079 11.7207 476.794 10.4258 477.72 9.35938C478.657 8.29297 479.776 7.47266 481.077 6.89844C482.378 6.32422 483.831 6.03711 485.436 6.03711C487.569 6.03711 489.368 6.42383 490.833 7.19727C492.309 7.9707 493.452 9.03711 494.261 10.3965C495.081 11.7559 495.573 13.3027 495.737 15.0371H490.464C490.405 14.0059 490.2 13.1328 489.849 12.418C489.497 11.6914 488.964 11.1465 488.249 10.7832C487.546 10.4082 486.608 10.2207 485.436 10.2207C484.558 10.2207 483.79 10.3848 483.134 10.7129C482.477 11.041 481.927 11.5391 481.481 12.207C481.036 12.875 480.702 13.7188 480.479 14.7383C480.268 15.7461 480.163 16.9297 480.163 18.2891V20.0996C480.163 21.4238 480.263 22.5898 480.462 23.5977C480.661 24.5938 480.966 25.4375 481.376 26.1289C481.798 26.8086 482.337 27.3242 482.993 27.6758C483.661 28.0156 484.464 28.1855 485.401 28.1855C486.503 28.1855 487.411 28.0098 488.126 27.6582C488.841 27.3066 489.386 26.7852 489.761 26.0938C490.147 25.4023 490.376 24.541 490.446 23.5098ZM510.819 27.4473V12.9805H515.881V32H511.117L510.819 27.4473ZM511.381 23.5449L512.875 23.5098C512.875 24.7754 512.729 25.9531 512.436 27.043C512.143 28.1211 511.703 29.0586 511.117 29.8555C510.531 30.6406 509.793 31.2559 508.903 31.7012C508.012 32.1348 506.963 32.3516 505.756 32.3516C504.83 32.3516 503.975 32.2227 503.19 31.9648C502.416 31.6953 501.748 31.2793 501.186 30.7168C500.635 30.1426 500.201 29.4102 499.885 28.5195C499.58 27.6172 499.428 26.5332 499.428 25.2676V12.9805H504.49V25.3027C504.49 25.8652 504.555 26.3398 504.684 26.7266C504.824 27.1133 505.018 27.4297 505.264 27.6758C505.51 27.9219 505.797 28.0977 506.125 28.2031C506.465 28.3086 506.84 28.3613 507.25 28.3613C508.293 28.3613 509.113 28.1504 509.711 27.7285C510.32 27.3066 510.748 26.7324 510.994 26.0059C511.252 25.2676 511.381 24.4473 511.381 23.5449ZM530.751 26.7441C530.751 26.3809 530.646 26.0527 530.435 25.7598C530.224 25.4668 529.831 25.1973 529.257 24.9512C528.695 24.6934 527.88 24.459 526.814 24.248C525.853 24.0371 524.956 23.7734 524.124 23.457C523.304 23.1289 522.589 22.7363 521.98 22.2793C521.382 21.8223 520.914 21.2832 520.574 20.6621C520.234 20.0293 520.064 19.3086 520.064 18.5C520.064 17.7031 520.234 16.9531 520.574 16.25C520.925 15.5469 521.423 14.9258 522.068 14.3867C522.724 13.8359 523.521 13.4082 524.458 13.1035C525.408 12.7871 526.474 12.6289 527.658 12.6289C529.31 12.6289 530.728 12.8926 531.912 13.4199C533.107 13.9473 534.021 14.6738 534.654 15.5996C535.298 16.5137 535.621 17.5566 535.621 18.7285H530.558C530.558 18.2363 530.453 17.7969 530.242 17.4102C530.042 17.0117 529.726 16.7012 529.292 16.4785C528.871 16.2441 528.32 16.127 527.64 16.127C527.078 16.127 526.591 16.2266 526.181 16.4258C525.771 16.6133 525.455 16.8711 525.232 17.1992C525.021 17.5156 524.915 17.8672 524.915 18.2539C524.915 18.5469 524.974 18.8105 525.091 19.0449C525.22 19.2676 525.425 19.4727 525.706 19.6602C525.988 19.8477 526.351 20.0234 526.796 20.1875C527.253 20.3398 527.816 20.4805 528.484 20.6094C529.855 20.8906 531.08 21.2598 532.158 21.7168C533.236 22.1621 534.091 22.7715 534.724 23.5449C535.357 24.3066 535.673 25.3086 535.673 26.5508C535.673 27.3945 535.486 28.168 535.111 28.8711C534.736 29.5742 534.197 30.1895 533.494 30.7168C532.79 31.2324 531.947 31.6367 530.962 31.9297C529.99 32.2109 528.894 32.3516 527.675 32.3516C525.906 32.3516 524.406 32.0352 523.175 31.4023C521.956 30.7695 521.031 29.9668 520.398 28.9941C519.777 28.0098 519.466 27.002 519.466 25.9707H524.265C524.289 26.6621 524.464 27.2188 524.792 27.6406C525.132 28.0625 525.56 28.3672 526.076 28.5547C526.603 28.7422 527.171 28.8359 527.781 28.8359C528.437 28.8359 528.982 28.748 529.415 28.5723C529.849 28.3848 530.177 28.1387 530.4 27.834C530.634 27.5176 530.751 27.1543 530.751 26.7441ZM548.997 12.9805V16.5664H537.923V12.9805H548.997ZM540.665 8.28711H545.727V26.2695C545.727 26.8203 545.798 27.2422 545.938 27.5352C546.091 27.8281 546.313 28.0332 546.606 28.1504C546.899 28.2559 547.268 28.3086 547.714 28.3086C548.03 28.3086 548.311 28.2969 548.557 28.2734C548.815 28.2383 549.032 28.2031 549.208 28.168L549.225 31.8945C548.792 32.0352 548.323 32.1465 547.819 32.2285C547.315 32.3105 546.759 32.3516 546.149 32.3516C545.036 32.3516 544.063 32.1699 543.231 31.8066C542.411 31.4316 541.778 30.834 541.333 30.0137C540.887 29.1934 540.665 28.1152 540.665 26.7793V8.28711ZM551.334 22.6836V22.3145C551.334 20.9199 551.533 19.6367 551.932 18.4648C552.33 17.2812 552.91 16.2559 553.672 15.3887C554.434 14.5215 555.371 13.8477 556.484 13.3672C557.598 12.875 558.875 12.6289 560.316 12.6289C561.758 12.6289 563.041 12.875 564.166 13.3672C565.291 13.8477 566.234 14.5215 566.996 15.3887C567.77 16.2559 568.355 17.2812 568.754 18.4648C569.152 19.6367 569.352 20.9199 569.352 22.3145V22.6836C569.352 24.0664 569.152 25.3496 568.754 26.5332C568.355 27.7051 567.77 28.7305 566.996 29.6094C566.234 30.4766 565.297 31.1504 564.184 31.6309C563.07 32.1113 561.793 32.3516 560.352 32.3516C558.91 32.3516 557.627 32.1113 556.502 31.6309C555.389 31.1504 554.445 30.4766 553.672 29.6094C552.91 28.7305 552.33 27.7051 551.932 26.5332C551.533 25.3496 551.334 24.0664 551.334 22.6836ZM556.396 22.3145V22.6836C556.396 23.4805 556.467 24.2246 556.607 24.916C556.748 25.6074 556.971 26.2168 557.275 26.7441C557.592 27.2598 558.002 27.6641 558.506 27.957C559.01 28.25 559.625 28.3965 560.352 28.3965C561.055 28.3965 561.658 28.25 562.162 27.957C562.666 27.6641 563.07 27.2598 563.375 26.7441C563.68 26.2168 563.902 25.6074 564.043 24.916C564.195 24.2246 564.271 23.4805 564.271 22.6836V22.3145C564.271 21.541 564.195 20.8145 564.043 20.1348C563.902 19.4434 563.674 18.834 563.357 18.3066C563.053 17.7676 562.648 17.3457 562.145 17.041C561.641 16.7363 561.031 16.584 560.316 16.584C559.602 16.584 558.992 16.7363 558.488 17.041C557.996 17.3457 557.592 17.7676 557.275 18.3066C556.971 18.834 556.748 19.4434 556.607 20.1348C556.467 20.8145 556.396 21.541 556.396 22.3145ZM578.245 16.918V32H573.165V12.9805H577.929L578.245 16.918ZM577.542 21.8223H576.136C576.136 20.498 576.294 19.2793 576.611 18.166C576.939 17.041 577.413 16.0684 578.034 15.248C578.667 14.416 579.447 13.7715 580.372 13.3145C581.298 12.8574 582.37 12.6289 583.589 12.6289C584.433 12.6289 585.206 12.7578 585.909 13.0156C586.613 13.2617 587.216 13.6543 587.72 14.1934C588.236 14.7207 588.634 15.4121 588.915 16.2676C589.197 17.1113 589.337 18.125 589.337 19.3086V32H584.275V19.8711C584.275 19.0039 584.158 18.3359 583.923 17.8672C583.689 17.3984 583.355 17.0703 582.921 16.8828C582.499 16.6953 581.99 16.6016 581.392 16.6016C580.736 16.6016 580.161 16.7363 579.669 17.0059C579.189 17.2754 578.79 17.6504 578.474 18.1309C578.158 18.5996 577.923 19.1504 577.771 19.7832C577.618 20.416 577.542 21.0957 577.542 21.8223ZM588.863 21.2422L587.052 21.4707C587.052 20.2285 587.204 19.0742 587.509 18.0078C587.825 16.9414 588.288 16.0039 588.898 15.1953C589.519 14.3867 590.286 13.7598 591.2 13.3145C592.115 12.8574 593.169 12.6289 594.365 12.6289C595.279 12.6289 596.111 12.7637 596.861 13.0332C597.611 13.291 598.249 13.707 598.777 14.2812C599.316 14.8438 599.726 15.582 600.007 16.4961C600.3 17.4102 600.447 18.5293 600.447 19.8535V32H595.366V19.8535C595.366 18.9746 595.249 18.3066 595.015 17.8496C594.792 17.3809 594.464 17.0586 594.031 16.8828C593.609 16.6953 593.105 16.6016 592.519 16.6016C591.909 16.6016 591.376 16.7246 590.919 16.9707C590.462 17.2051 590.081 17.5332 589.777 17.9551C589.472 18.377 589.243 18.8691 589.091 19.4316C588.939 19.9824 588.863 20.5859 588.863 21.2422ZM613.84 32.3516C612.364 32.3516 611.04 32.1172 609.868 31.6484C608.696 31.168 607.7 30.5059 606.879 29.6621C606.071 28.8184 605.45 27.8398 605.016 26.7266C604.583 25.6016 604.366 24.4062 604.366 23.1406V22.4375C604.366 20.9961 604.571 19.6777 604.981 18.4824C605.391 17.2871 605.977 16.25 606.739 15.3711C607.512 14.4922 608.45 13.8184 609.551 13.3496C610.653 12.8691 611.895 12.6289 613.278 12.6289C614.626 12.6289 615.821 12.8516 616.864 13.2969C617.907 13.7422 618.78 14.375 619.483 15.1953C620.198 16.0156 620.737 17 621.1 18.1484C621.463 19.2852 621.645 20.5508 621.645 21.9453V24.0547H606.528V20.6797H616.67V20.293C616.67 19.5898 616.542 18.9629 616.284 18.4121C616.038 17.8496 615.663 17.4043 615.159 17.0762C614.655 16.748 614.01 16.584 613.225 16.584C612.557 16.584 611.983 16.7305 611.503 17.0234C611.022 17.3164 610.629 17.7266 610.325 18.2539C610.032 18.7812 609.809 19.4023 609.657 20.1172C609.516 20.8203 609.446 21.5938 609.446 22.4375V23.1406C609.446 23.9023 609.551 24.6055 609.762 25.25C609.985 25.8945 610.295 26.4512 610.694 26.9199C611.104 27.3887 611.596 27.752 612.17 28.0098C612.756 28.2676 613.419 28.3965 614.157 28.3965C615.071 28.3965 615.92 28.2207 616.706 27.8691C617.503 27.5059 618.188 26.9609 618.762 26.2344L621.223 28.9062C620.825 29.4805 620.28 30.0312 619.588 30.5586C618.909 31.0859 618.088 31.5195 617.128 31.8594C616.167 32.1875 615.071 32.3516 613.84 32.3516ZM630.31 17.1289V32H625.248V12.9805H630.012L630.31 17.1289ZM636.041 12.8574L635.953 17.5508C635.707 17.5156 635.408 17.4863 635.056 17.4629C634.717 17.4277 634.406 17.4102 634.125 17.4102C633.41 17.4102 632.789 17.5039 632.262 17.6914C631.746 17.8672 631.312 18.1309 630.961 18.4824C630.621 18.834 630.363 19.2617 630.187 19.7656C630.023 20.2695 629.93 20.8438 629.906 21.4883L628.887 21.1719C628.887 19.9414 629.01 18.8105 629.256 17.7793C629.502 16.7363 629.859 15.8281 630.328 15.0547C630.808 14.2812 631.394 13.6836 632.086 13.2617C632.777 12.8398 633.568 12.6289 634.459 12.6289C634.74 12.6289 635.027 12.6523 635.32 12.6992C635.613 12.7344 635.853 12.7871 636.041 12.8574ZM649.435 26.7441C649.435 26.3809 649.329 26.0527 649.118 25.7598C648.907 25.4668 648.515 25.1973 647.941 24.9512C647.378 24.6934 646.564 24.459 645.497 24.248C644.536 24.0371 643.64 23.7734 642.808 23.457C641.987 23.1289 641.273 22.7363 640.663 22.2793C640.066 21.8223 639.597 21.2832 639.257 20.6621C638.917 20.0293 638.747 19.3086 638.747 18.5C638.747 17.7031 638.917 16.9531 639.257 16.25C639.609 15.5469 640.107 14.9258 640.751 14.3867C641.407 13.8359 642.204 13.4082 643.142 13.1035C644.091 12.7871 645.157 12.6289 646.341 12.6289C647.993 12.6289 649.411 12.8926 650.595 13.4199C651.79 13.9473 652.704 14.6738 653.337 15.5996C653.982 16.5137 654.304 17.5566 654.304 18.7285H649.241C649.241 18.2363 649.136 17.7969 648.925 17.4102C648.726 17.0117 648.409 16.7012 647.976 16.4785C647.554 16.2441 647.003 16.127 646.323 16.127C645.761 16.127 645.275 16.2266 644.864 16.4258C644.454 16.6133 644.138 16.8711 643.915 17.1992C643.704 17.5156 643.599 17.8672 643.599 18.2539C643.599 18.5469 643.657 18.8105 643.775 19.0449C643.903 19.2676 644.109 19.4727 644.39 19.6602C644.671 19.8477 645.034 20.0234 645.48 20.1875C645.937 20.3398 646.499 20.4805 647.167 20.6094C648.538 20.8906 649.763 21.2598 650.841 21.7168C651.919 22.1621 652.775 22.7715 653.407 23.5449C654.04 24.3066 654.357 25.3086 654.357 26.5508C654.357 27.3945 654.169 28.168 653.794 28.8711C653.419 29.5742 652.88 30.1895 652.177 30.7168C651.474 31.2324 650.63 31.6367 649.646 31.9297C648.673 32.2109 647.577 32.3516 646.359 32.3516C644.589 32.3516 643.089 32.0352 641.859 31.4023C640.64 30.7695 639.714 29.9668 639.081 28.9941C638.46 28.0098 638.15 27.002 638.15 25.9707H642.948C642.972 26.6621 643.148 27.2188 643.476 27.6406C643.816 28.0625 644.243 28.3672 644.759 28.5547C645.286 28.7422 645.855 28.8359 646.464 28.8359C647.12 28.8359 647.665 28.748 648.099 28.5723C648.532 28.3848 648.86 28.1387 649.083 27.834C649.318 27.5176 649.435 27.1543 649.435 26.7441Z" fill="#2E2F42"/>
</svg>
